<?xml version="1.0" encoding="UTF-8"?> <svg xmlns="http://www.w3.org/2000/svg" viewBox="0 0 337.61 206.67"> <defs> <style>.cls-1{fill:#fff;}.cls-2{fill:#de4536;}</style> </defs> <title>AIN_logo_white</title> <g id="Layer_2" data-name="Layer 2"> <path class="cls-1" d="M460.91,210.92c-5.14-18.28-22.29-34.9-64-34.9-34.44,0-51.09,6.52-56.11,10.88-3.3,2.87-4.71,4.69-4.71,10.11v98.56a16.59,16.59,0,0,0,16.59,16.59h19.58a16.58,16.58,0,0,0,16.58-16.59V209.42c0-7.14,20.62-9.9,20.62,5.3,0,4.42-.12,80.85-.12,80.85a16.59,16.59,0,0,0,16.59,16.59h19.58a16.58,16.58,0,0,0,16.58-16.59V224.26A64.22,64.22,0,0,0,460.91,210.92Z" transform="translate(-124.49 -106.99)"></path> <path class="cls-1" d="M182,174.52c-40.77,0-53.83,12.54-55.76,15.89-3.39,5.9,1.7,17.4,10.44,18,7.06.52,31.09-12.78,58.68-4.89,9.68,2.76,8.18,14.74,8.18,18.54s-2.42,5.18-7.6,5.18-71.45-7.94-71.45,42.5c0,38.35,44.81,43.88,63.31,43.88s63.31.69,63.31-19.35v-76C251.11,196.64,229,174.52,182,174.52ZM202.31,280c0,5.23-3.25,10.14-13.15,10.14-7.52,0-14-6.66-14-21.43,0-13.24,6.32-21.44,14-21.44,9.05,0,13.15,5.64,13.15,9.41Z" transform="translate(-124.49 -106.99)"></path> <path class="cls-2" d="M326.7,107H256c-7.51,0-8,7.77-8,7.77v53.33c0,10.51,10.7,10.27,10.7,10.27v10.78c0,5.25,7.57,7,14.85,2.86l24.43-13.8h28.28c7.82,0,9.1-8.41,9.1-8.41V116.5C335.32,107.78,326.7,107,326.7,107Zm-2.56,60.11H303.38a25.16,25.16,0,0,0-12.62,3.17l-21.4,12.85v-6.38c0-10.29-10.7-10.12-10.7-10.12V117.45h65.48Z" transform="translate(-124.49 -106.99)"></path> <path class="cls-2" d="M314.08,145.37h-43.6v10.47h43.6Z" transform="translate(-124.49 -106.99)"></path> <path class="cls-2" d="M314.08,129.32h-43.6v10.47h43.6Z" transform="translate(-124.49 -106.99)"></path> <path class="cls-1" d="M304.94,191.66c-6.17,0-9.5,1.5-9.5,1.5l-22.71,12c-5.55,3-5.27,8.06-5.27,8.06v82.31a16.59,16.59,0,0,0,16.59,16.59h19.58a16.58,16.58,0,0,0,16.58-16.59V200.21c0-4.81-2.24-8.55-6.93-8.55Z" transform="translate(-124.49 -106.99)"></path> </g> </svg> 